<svg xmlns="http://www.w3.org/2000/svg" width="1400" height="1007" viewBox="0 0 1400 1007" role="img" aria-label="SmartRecs login preview">
  <defs>
    <linearGradient id="bg" x1="0" y1="0" x2="0" y2="1">
      <stop offset="0%" stop-color="#12011f"/>
      <stop offset="55%" stop-color="#090412"/>
      <stop offset="100%" stop-color="#000000"/>
    </linearGradient>
    <linearGradient id="seat" x1="0" y1="0" x2="0" y2="1">
      <stop offset="0%" stop-color="#3a0000" stop-opacity="0.7"/>
      <stop offset="100%" stop-color="#120000" stop-opacity="0.96"/>
    </linearGradient>
    <linearGradient id="btn" x1="0" y1="0" x2="1" y2="0">
      <stop offset="0%" stop-color="#e50914"/>
      <stop offset="100%" stop-color="#ff2d6f"/>
    </linearGradient>
    <filter id="glow" x="-20%" y="-20%" width="140%" height="140%">
      <feGaussianBlur stdDeviation="7" result="b"/>
      <feMerge>
        <feMergeNode in="b"/>
        <feMergeNode in="SourceGraphic"/>
      </feMerge>
    </filter>
  </defs>

  <rect width="1400" height="1007" fill="url(#bg)"/>

  <ellipse cx="700" cy="280" rx="600" ry="260" fill="#2a043e" opacity="0.38"/>
  <ellipse cx="700" cy="350" rx="430" ry="190" fill="#260027" opacity="0.32"/>

  <rect x="0" y="560" width="1400" height="447" fill="url(#seat)"/>
  <g fill="#2b0000" opacity="0.82">
    <rect x="0" y="610" width="96" height="190" rx="16"/>
    <rect x="104" y="610" width="96" height="190" rx="16"/>
    <rect x="208" y="610" width="96" height="190" rx="16"/>
    <rect x="312" y="610" width="96" height="190" rx="16"/>
    <rect x="416" y="610" width="96" height="190" rx="16"/>
    <rect x="520" y="610" width="96" height="190" rx="16"/>
    <rect x="624" y="610" width="96" height="190" rx="16"/>
    <rect x="728" y="610" width="96" height="190" rx="16"/>
    <rect x="832" y="610" width="96" height="190" rx="16"/>
    <rect x="936" y="610" width="96" height="190" rx="16"/>
    <rect x="1040" y="610" width="96" height="190" rx="16"/>
    <rect x="1144" y="610" width="96" height="190" rx="16"/>
    <rect x="1248" y="610" width="96" height="190" rx="16"/>
  </g>

  <text x="700" y="335" text-anchor="middle" font-family="Arial, Helvetica, sans-serif" font-weight="700" font-size="66" fill="#ff1e27" filter="url(#glow)">SmartRecs 🍿</text>
  <text x="700" y="380" text-anchor="middle" font-family="Arial, Helvetica, sans-serif" font-size="37" fill="#b9b9c2">Your next favorite movie is one click away.</text>

  <rect x="486" y="388" width="428" height="403" rx="12" fill="#0a0a12" fill-opacity="0.88" stroke="#4e4e58" stroke-opacity="0.7"/>
  <text x="700" y="450" text-anchor="middle" font-family="Arial, Helvetica, sans-serif" font-size="49" fill="#c8c8ce">Sign In</text>

  <text x="518" y="527" font-family="Arial, Helvetica, sans-serif" font-size="35" fill="#b8b8bf">Username</text>
  <rect x="518" y="541" width="364" height="52" rx="7" fill="none" stroke="#5c5c66"/>
  <text x="531" y="575" font-family="Arial, Helvetica, sans-serif" font-size="33" fill="#8c93a3">John</text>

  <text x="518" y="648" font-family="Arial, Helvetica, sans-serif" font-size="35" fill="#b8b8bf">Password</text>
  <rect x="518" y="662" width="364" height="52" rx="7" fill="none" stroke="#5c5c66"/>
  <text x="531" y="696" font-family="Arial, Helvetica, sans-serif" font-size="33" fill="#8c93a3">••••••••</text>

  <rect x="518" y="740" width="364" height="67" rx="8" fill="url(#btn)"/>
  <text x="700" y="783" text-anchor="middle" font-family="Arial, Helvetica, sans-serif" font-weight="700" font-size="37" fill="#ffffff">Login</text>

  <text x="700" y="857" text-anchor="middle" font-family="Arial, Helvetica, sans-serif" font-size="35" fill="#bcbcc4">Don't have an account?</text>
  <text x="820" y="857" font-family="Arial, Helvetica, sans-serif" font-weight="700" font-size="40" fill="#ff5b93">Register</text>
</svg>
